# xmcd
#
# Track frame offsets:
# 150
# 9907
# 21737
# 31459
# 41481
# 50265
# 63537
# 71958
# 84100
# 96103
# 108307
# 123532
# 137864
# 147543
#
# Disc length: 2116 seconds
#
#
# Revision: 1
# Processed by: cddbd v1.5.2PL0 Copyright (c) Steve Scherf et al.
# Submitted via: FreeRIP 2.951 
#
DISCID=c808420e
DTITLE=The Kings of Swing - The Kings of Swing
DYEAR=2005
DGENRE=Swing
TTITLE0=Michael Bublè - Tell Him He's Yours
TTITLE1=Frank Sinatra - You Do Something to Me
TTITLE2=Michael Bublè - Me and Mrs You
TTITLE3=Frank Sinatra - I've got The World On A String
TTITLE4=Michael Bublè - That's How It Goes
TTITLE5=Frank Sinatra - I Get I Kick Out Of You
TTITLE6=Michael Bublè - Guess I'm Falling For You
TTITLE7=Frank Sinatra - A Foggy Day
TTITLE8=Michael Bublè - Peroxide Swing
TTITLE9=Frank Sinatra - Lover
TTITLE10=Michael Bublè - Love at First Sight
TTITLE11=Frank Sinatra - Don't Worry But Me
TTITLE12=Michael Bublè - Anyone To Love
TTITLE13=Frank Sinatra - My Funny Valentine
EXTD=
EXTT0=
EXTT1=
EXTT2=
EXTT3=
EXTT4=
EXTT5=
EXTT6=
EXTT7=
EXTT8=
EXTT9=
EXTT10=
EXTT11=
EXTT12=
EXTT13=
PLAYORDER=
